<svg height="200px" width="200px" version="1.1" id="Layer_1" xmlns="http://www.w3.org/2000/svg"
	xmlns:xlink="http://www.w3.org/1999/xlink" viewBox="0 0 512 512" xml:space="preserve"
	fill="#000000"><g id="SVGRepo_bgCarrier" stroke-width="0"></g><g id="SVGRepo_tracerCarrier" stroke-linecap="round" stroke-linejoin="round"></g><g id="SVGRepo_iconCarrier"> <path style="fill:#FFFFFF;" d="M256,16.696C124.048,16.696,16.696,124.048,16.696,256S124.048,495.304,256,495.304 S495.304,387.952,495.304,256S387.952,16.696,256,16.696z"></path> <path style="fill:#696969;" d="M256,512c-68.381,0-132.667-26.628-181.02-74.98C26.628,388.667,0,324.38,0,256 S26.628,123.333,74.98,74.98C123.333,26.628,187.619,0,256,0s132.667,26.628,181.02,74.98C485.372,123.333,512,187.62,512,256 s-26.628,132.667-74.98,181.02C388.667,485.372,324.381,512,256,512z M256,33.391C133.254,33.391,33.391,133.254,33.391,256 S133.254,478.609,256,478.609S478.609,378.746,478.609,256S378.746,33.391,256,33.391z"></path> <path style="fill:#9ED04D;" d="M230.731,450.975c-2.681-8.974-6.354-21.266-1.162-40.113c5.191-18.844,14.257-27.168,21.542-33.857 c5.791-5.318,9.288-8.529,11.934-18.13c2.646-9.606,1.287-14.153-0.964-21.689c-0.683-2.29-1.373-4.6-1.995-7.185l32.467-7.801 c0.409,1.703,0.943,3.488,1.507,5.378c2.846,9.525,6.369,21.317,1.176,40.164c-5.191,18.845-14.257,27.169-21.542,33.858 c-5.792,5.318-9.288,8.529-11.934,18.13c-2.646,9.603-1.287,14.151,0.964,21.684L230.731,450.975z"></path> <g> <path style="fill:#F9D026;" d="M190.788,245.905c-8.206,0-18.029-1.394-30.431-7.956c-17.276-9.143-23.443-19.793-28.398-28.351 c-3.941-6.805-6.32-10.913-15.123-15.571c-8.802-4.659-13.536-4.318-21.38-3.747l-2.415-33.304 c9.862-0.713,22.14-1.605,39.415,7.538s23.444,19.794,28.399,28.353c3.941,6.805,6.32,10.912,15.122,15.571 c8.805,4.66,13.54,4.316,21.385,3.749c2.341-0.169,4.762-0.346,7.438-0.394l0.611,33.386c-1.772,0.032-3.647,0.168-5.634,0.313 C196.992,245.689,194.016,245.905,190.788,245.905z"></path> <path style="fill:#F9D026;" d="M305.698,264.363l16.585-1.91l-16.587,1.907c-1.131-9.824-2.539-22.049,5.865-39.696 c8.403-17.646,18.784-24.259,27.124-29.572c6.633-4.225,10.636-6.775,14.917-15.767c4.283-8.994,3.74-13.71,2.84-21.524 c-0.255-2.212-0.544-4.722-0.709-7.415l33.33-2.024c0.109,1.789,0.323,3.647,0.55,5.614c1.132,9.828,2.54,22.055-5.865,39.703 c-8.403,17.647-18.784,24.26-27.124,29.574c-6.633,4.225-10.636,6.775-14.917,15.767c-4.283,8.992-3.739,13.706-2.839,21.518 L305.698,264.363z"></path> </g> <path style="fill:#F74D37;" d="M261.787,144.696c-15.343,0-27.826-12.483-27.826-27.826s12.483-27.826,27.826-27.826 s27.826,12.483,27.826,27.826S277.13,144.696,261.787,144.696z"></path> <path style="fill:#FFAC12;" d="M149.678,350.609c-15.343,0-27.826-12.483-27.826-27.826s12.483-27.826,27.826-27.826 s27.826,12.483,27.826,27.826S165.02,350.609,149.678,350.609z"></path> <path style="fill:#9ED04D;" d="M386.956,367.304c-15.343,0-27.826-12.483-27.826-27.826s12.483-27.826,27.826-27.826 s27.826,12.483,27.826,27.826C414.782,354.822,402.3,367.304,386.956,367.304z"></path> <path style="fill:#EDEEF0;" d="M256,16.696v478.609c131.952,0,239.304-107.352,239.304-239.304 C495.304,124.046,387.952,16.696,256,16.696z"></path> <path style="fill:#696969;" d="M437.02,74.98C388.667,26.628,324.381,0,256,0v33.391c122.746,0,222.609,99.862,222.609,222.609 S378.746,478.609,256,478.609V512c68.381,0,132.667-26.628,181.02-74.98C485.372,388.667,512,324.38,512,256 S485.372,123.333,437.02,74.98z"></path> <path style="fill:#F9D026;" d="M190.788,245.905c-8.206,0-18.029-1.394-30.431-7.956c-17.276-9.143-23.443-19.793-28.398-28.351 c-3.941-6.805-6.32-10.913-15.123-15.571c-8.802-4.659-13.536-4.318-21.38-3.747l-2.415-33.304 c9.862-0.713,22.14-1.605,39.415,7.538s23.444,19.794,28.399,28.353c3.941,6.805,6.32,10.912,15.122,15.571 c8.805,4.66,13.54,4.316,21.385,3.749c2.341-0.169,4.762-0.346,7.438-0.394l0.611,33.386c-1.772,0.032-3.647,0.168-5.634,0.313 C196.992,245.689,194.016,245.905,190.788,245.905z"></path> <path style="fill:#E7C224;" d="M305.698,264.363l16.585-1.91l-16.587,1.907c-1.131-9.824-2.539-22.049,5.865-39.696 c8.403-17.646,18.784-24.259,27.124-29.572c6.633-4.225,10.636-6.775,14.917-15.767c4.283-8.994,3.74-13.71,2.84-21.524 c-0.255-2.212-0.544-4.722-0.709-7.415l33.33-2.024c0.109,1.789,0.323,3.647,0.55,5.614c1.132,9.828,2.54,22.055-5.865,39.703 c-8.403,17.647-18.784,24.26-27.124,29.574c-6.633,4.225-10.636,6.775-14.917,15.767c-4.283,8.992-3.739,13.706-2.839,21.518 L305.698,264.363z"></path> <path style="fill:#86B143;" d="M294.058,327.579c-0.564-1.89-1.097-3.674-1.507-5.378l-32.467,7.801 c0.621,2.585,1.311,4.895,1.995,7.185c2.251,7.535,3.61,12.083,0.964,21.689c-1.801,6.536-3.998,10.11-7.043,13.403v71.147 l6.724-2.009c-2.251-7.533-3.61-12.081-0.964-21.684c2.646-9.601,6.142-12.812,11.934-18.13 c7.285-6.688,16.349-15.013,21.542-33.858C300.427,348.895,296.904,337.103,294.058,327.579z"></path> <path style="fill:#B03727;" d="M289.613,116.87c0-15.343-12.483-27.826-27.826-27.826c-1.985,0-3.919,0.213-5.787,0.609v54.433 c1.868,0.396,3.803,0.609,5.787,0.609C277.13,144.696,289.613,132.213,289.613,116.87z"></path> <path style="fill:#FFAC12;" d="M149.678,350.609c-15.343,0-27.826-12.483-27.826-27.826s12.483-27.826,27.826-27.826 s27.826,12.483,27.826,27.826S165.02,350.609,149.678,350.609z"></path> <path style="fill:#86B143;" d="M386.956,367.304c-15.343,0-27.826-12.483-27.826-27.826s12.483-27.826,27.826-27.826 s27.826,12.483,27.826,27.826C414.782,354.822,402.3,367.304,386.956,367.304z"></path> </g></svg>