<?xml version="1.0" encoding="iso-8859-1"?>
<!-- Uploaded to: SVG Repo, www.svgrepo.com, Generator: SVG Repo Mixer Tools -->
<svg height="800px" width="800px" version="1.1" id="Layer_1" xmlns="http://www.w3.org/2000/svg" xmlns:xlink="http://www.w3.org/1999/xlink" 
	 viewBox="0 0 512 512" xml:space="preserve">
<path style="fill:#FA6E51;" d="M0,256.006C0,397.402,114.606,512.004,255.996,512C397.394,512.004,512,397.402,512,256.006
	C512.009,114.61,397.394,0,255.996,0C114.606,0,0,114.614,0,256.006z"/>
<path style="fill:#E8573F;" d="M512,256.005c0.001-19.753-2.31-38.954-6.543-57.422c-0.155-0.179-0.305-0.362-0.474-0.53
	c-0.258-0.258-94.58-94.502-94.842-94.757c-0.249-0.254-0.452-0.535-0.704-0.787c-20.819-20.827-49.433-31.423-80.524-29.844
	c-30.815,1.564-60.271,14.911-82.942,37.585L110.247,245.986c-22.678,22.667-36.026,52.123-37.586,82.93
	c-1.574,31.103,9.025,59.697,29.844,80.516c0.261,0.261,0.55,0.476,0.815,0.734c0.246,0.252,0.453,0.533,0.703,0.783
	c0.259,0.259,93.778,93.778,94.029,94.029c0.172,0.172,0.354,0.324,0.533,0.48C217.05,509.69,236.247,512,255.997,512
	C397.394,512.004,512,397.401,512,256.005z"/>
<path style="fill:#F4F6F9;" d="M409.438,102.509c-20.819-20.827-49.433-31.423-80.524-29.844
	c-30.815,1.564-60.271,14.911-82.942,37.585L110.247,245.986c-22.678,22.667-36.026,52.124-37.585,82.931
	c-1.575,31.102,9.025,59.696,29.844,80.516c20.132,20.132,46.946,30.058,74.626,30.058c31.33,0,63.764-12.727,88.832-37.787
	l135.733-135.737C448.89,218.758,452.361,145.435,409.438,102.509z M255.155,390.894c-41.244,41.229-104.874,44.685-141.84,7.73
	c-17.722-17.725-26.739-42.206-25.388-68.93c1.374-27.023,13.138-52.911,33.129-72.898l66.283-66.289l134.101,134.1L255.155,390.894
	z M390.888,255.157l-58.639,58.641l-134.1-134.101l58.634-58.639c19.99-19.99,45.878-31.756,72.909-33.125
	c1.755-0.09,3.493-0.134,5.233-0.134c24.678,0,47.14,8.961,63.705,25.519C435.587,150.284,432.116,213.914,390.888,255.157z"/>
</svg>