<?xml version="1.0" encoding="utf-8"?><!-- Uploaded to: SVG Repo, www.svgrepo.com, Generator: SVG Repo Mixer Tools -->
<svg fill="#000000" width="800px" height="800px" viewBox="0 0 24 24" id="screen-capture" data-name="Flat Color" xmlns="http://www.w3.org/2000/svg" class="icon flat-color"><circle id="secondary" cx="12" cy="12" r="4" style="fill: rgb(44, 169, 188);"></circle><path id="primary" d="M21,10a1,1,0,0,1-1-1V4H15a1,1,0,0,1,0-2h5a2,2,0,0,1,2,2V9A1,1,0,0,1,21,10Zm1,10V15a1,1,0,0,0-2,0v5H15a1,1,0,0,0,0,2h5A2,2,0,0,0,22,20ZM4,9V4H9A1,1,0,0,0,9,2H4A2,2,0,0,0,2,4V9A1,1,0,0,0,4,9Zm6,12a1,1,0,0,0-1-1H4V15a1,1,0,0,0-2,0v5a2,2,0,0,0,2,2H9A1,1,0,0,0,10,21Z" style="fill: rgb(0, 0, 0);"></path></svg>