<svg fill="#ffffff" width="256px" height="256px" viewBox="0 0 24.00 24.00" id="menu-alt-2"
  data-name="Flat Color" xmlns="http://www.w3.org/2000/svg" class="icon flat-color"
  transform="rotate(0)" stroke="#ffffff" stroke-width="0.00024000000000000003">
  <g id="SVGRepo_bgCarrier" stroke-width="0"></g>
  <g id="SVGRepo_tracerCarrier" stroke-linecap="round" stroke-linejoin="round" stroke="#fff"
    stroke-width="0.8160000000000001">
    <path id="secondary"
      d="M11,14v7a1,1,0,0,1-1,1H3a1,1,0,0,1-1-1V14a1,1,0,0,1,1-1h7A1,1,0,0,1,11,14ZM21,2H14a1,1,0,0,0-1,1v7a1,1,0,0,0,1,1h7a1,1,0,0,0,1-1V3A1,1,0,0,0,21,2Z"
      style="fill: #1e3d7b;"></path>
    <path id="primary"
      d="M11,3v7a1,1,0,0,1-1,1H3a1,1,0,0,1-1-1V3A1,1,0,0,1,3,2h7A1,1,0,0,1,11,3ZM21,13H14a1,1,0,0,0-1,1v7a1,1,0,0,0,1,1h7a1,1,0,0,0,1-1V14A1,1,0,0,0,21,13Z"
      style="fill: #1e3d7b1e3d7b;"></path>
  </g>
  <g id="SVGRepo_iconCarrier">
    <path id="secondary"
      d="M11,14v7a1,1,0,0,1-1,1H3a1,1,0,0,1-1-1V14a1,1,0,0,1,1-1h7A1,1,0,0,1,11,14ZM21,2H14a1,1,0,0,0-1,1v7a1,1,0,0,0,1,1h7a1,1,0,0,0,1-1V3A1,1,0,0,0,21,2Z"
      style="fill: #1e3d7b;"></path>
    <path id="primary"
      d="M11,3v7a1,1,0,0,1-1,1H3a1,1,0,0,1-1-1V3A1,1,0,0,1,3,2h7A1,1,0,0,1,11,3ZM21,13H14a1,1,0,0,0-1,1v7a1,1,0,0,0,1,1h7a1,1,0,0,0,1-1V14A1,1,0,0,0,21,13Z"
      style="fill: #1e3d7b1e3d7b;"></path>
  </g>
</svg>