<?xml version="1.0" encoding="iso-8859-1"?>
<!-- Uploaded to: SVG Repo, www.svgrepo.com, Generator: SVG Repo Mixer Tools -->
<svg version="1.1" id="Layer_1" xmlns="http://www.w3.org/2000/svg" xmlns:xlink="http://www.w3.org/1999/xlink" 
	 viewBox="0 0 512 512" xml:space="preserve">
<g>
	<polygon style="fill:#434A54;" points="302.341,438.093 439.546,323.638 453.218,340.028 316.013,454.468 	"/>
	<polygon style="fill:#434A54;" points="302.341,182.003 439.546,67.556 453.218,83.938 316.013,198.386 	"/>
	
		<rect x="32.44" y="122.306" transform="matrix(0.7679 -0.6406 0.6406 0.7679 -56.9156 108.8707)" style="fill:#434A54;" width="178.663" height="21.333"/>
	<rect x="234.67" y="53.954" style="fill:#434A54;" width="178.68" height="21.328"/>
	<rect x="448" y="109.05" style="fill:#434A54;" width="21.344" height="178.67"/>
	<rect x="90.74" y="180.71" style="fill:#434A54;" width="178.66" height="21.328"/>
	<rect x="90.74" y="436.72" style="fill:#434A54;" width="178.66" height="21.312"/>
	<rect x="42.665" y="231.37" style="fill:#434A54;" width="21.336" height="178.66"/>
	<rect x="298.67" y="227.37" style="fill:#434A54;" width="21.328" height="178.66"/>
</g>
<g>
	<path style="fill:#ED5565;" d="M106.666,447.374c0-29.453-23.883-53.345-53.337-53.345S0,417.921,0,447.374
		s23.875,53.345,53.329,53.345S106.666,476.827,106.666,447.374z"/>
	<path style="fill:#ED5565;" d="M362.67,447.374c0-29.453-23.892-53.345-53.329-53.345c-29.469,0-53.345,23.892-53.345,53.345
		s23.876,53.345,53.345,53.345C338.778,500.719,362.67,476.827,362.67,447.374z"/>
</g>
<g>
	<path style="fill:#DA4453;" d="M512,320.716c0-29.469-23.875-53.345-53.329-53.345c-29.453,0-53.329,23.876-53.329,53.345
		c0,29.438,23.876,53.313,53.329,53.313C488.125,374.029,512,350.153,512,320.716z"/>
	<path style="fill:#DA4453;" d="M512,64.618c0-29.454-23.875-53.337-53.329-53.337c-29.453,0-53.329,23.883-53.329,53.337
		s23.876,53.337,53.329,53.337C488.125,117.955,512,94.072,512,64.618z"/>
	<path style="fill:#DA4453;" d="M255.996,64.618c0-29.454-23.875-53.337-53.329-53.337c-29.453,0-53.336,23.883-53.336,53.337
		s23.883,53.337,53.336,53.337C232.121,117.955,255.996,94.072,255.996,64.618z"/>
</g>
<g>
	<path style="fill:#ED5565;" d="M362.67,191.37c0-29.454-23.892-53.337-53.329-53.337c-29.469,0-53.345,23.883-53.345,53.337
		s23.876,53.337,53.345,53.337C338.778,244.707,362.67,220.824,362.67,191.37z"/>
	<path style="fill:#ED5565;" d="M106.666,191.284c0-29.454-23.883-53.329-53.337-53.329S0,161.831,0,191.284
		c0,29.461,23.875,53.337,53.329,53.337S106.666,220.746,106.666,191.284z"/>
</g>
</svg>