<svg width="228" height="105" xmlns="http://www.w3.org/2000/svg" xmlns:xlink="http://www.w3.org/1999/xlink" xml:space="preserve" overflow="hidden"><g><g><path d="M32.1124 43.5403 10.2404 5.65681 53.9844 5.6568Z" fill="#529158" fill-rule="nonzero" fill-opacity="1" transform="matrix(1 0 0 2.53306 -6.34992 -8.80432)"/><path d="M32.1124 43.5403 10.2404 5.65681 53.9844 5.6568Z" fill="#8DF297" fill-rule="nonzero" fill-opacity="1" transform="matrix(-1 0 0 -2.53306 102.102 116.054)"/><path d="M20.7222 172.041 19.9273 121.419 64.166 146.042Z" fill="#2E75B8" fill-rule="nonzero" fill-opacity="1" transform="matrix(0.999583 0.0288752 -0.0151948 1.89955 29.78 -225.391)"/><path d="M20.7181 172.008 19.9234 121.395 64.1534 146.013Z" fill="#70C378" fill-rule="nonzero" fill-opacity="1" transform="matrix(0.999779 0.0210043 -0.0151978 1.38176 7.66404 -136.568)"/><path d="M20.7181 172.008 19.9234 121.395 64.1534 146.013Z" fill="#70C378" fill-rule="nonzero" fill-opacity="1" transform="matrix(0.999779 0.0210043 -0.0151978 1.38176 7.69835 -162.679)"/><text fill="#134472" fill-opacity="1" font-family="Arial,Arial_MSFontService,sans-serif" font-style="normal" font-variant="normal" font-weight="400" font-stretch="normal" font-size="20" text-anchor="start" direction="ltr" writing-mode="lr-tb" unicode-bidi="normal" text-decoration="none" transform="matrix(0.876923 0 0 0.874407 94.7796 47)">Tuberculosis</text><text fill="#134472" fill-opacity="1" font-family="Arial,Arial_MSFontService,sans-serif" font-style="normal" font-variant="normal" font-weight="400" font-stretch="normal" font-size="20" text-anchor="start" direction="ltr" writing-mode="lr-tb" unicode-bidi="normal" text-decoration="none" transform="matrix(0.876923 0 0 0.874407 94.7796 69)">Drug Accelerator</text></g></g></svg>